<svg xmlns="http://www.w3.org/2000/svg" xmlns:xlink="http://www.w3.org/1999/xlink" width="1080" zoomAndPan="magnify" viewBox="0 0 810 809.999993" height="1080" preserveAspectRatio="xMidYMid meet" version="1.0"><defs><clipPath id="9261ab92a8"><path d="M 243 270.089844 L 567 270.089844 L 567 540 L 243 540 Z M 243 270.089844 " clip-rule="nonzero"/></clipPath></defs><g clip-path="url(#9261ab92a8)"><path fill="#f3f0f2" d="M 243.007812 270.089844 L 566.992188 270.089844 L 566.992188 539.902344 L 243.007812 539.902344 Z M 243.007812 270.089844 " fill-opacity="1" fill-rule="nonzero"/></g><path fill="#2c5b40" d="M 402.34375 293.191406 L 404.46875 293.191406 L 406.859375 294.253906 L 410.046875 296.113281 L 413.761719 298.769531 L 416.683594 301.160156 L 419.339844 303.550781 L 419.339844 304.082031 L 420.402344 304.613281 L 420.402344 305.144531 L 420.933594 305.144531 L 422.792969 307.265625 L 425.449219 310.453125 L 428.636719 315.234375 L 431.820312 321.34375 L 433.679688 325.855469 L 435.273438 331.433594 L 436.335938 337.808594 L 436.601562 340.992188 L 436.601562 346.835938 L 436.070312 352.148438 L 434.742188 358.253906 L 433.414062 362.769531 L 430.757812 368.878906 L 428.105469 373.660156 L 424.917969 377.90625 L 422.792969 380.5625 L 419.605469 384.015625 L 415.886719 387.46875 L 410.84375 391.183594 L 408.984375 392.511719 L 408.984375 413.757812 L 408.71875 415.882812 L 410.84375 415.351562 L 413.761719 414.289062 L 415.089844 410.570312 L 416.949219 405.527344 L 419.074219 401.277344 L 421.199219 397.558594 L 423.589844 394.105469 L 427.042969 389.859375 L 429.964844 386.671875 L 432.617188 384.28125 L 436.867188 381.09375 L 440.851562 378.4375 L 447.488281 374.984375 L 453.597656 372.597656 L 459.441406 371.003906 L 465.546875 369.941406 L 467.9375 369.675781 L 478.5625 369.675781 L 484.402344 370.472656 L 491.308594 372.066406 L 497.945312 374.453125 L 504.054688 377.375 L 509.101562 380.5625 L 512.289062 382.953125 L 513.882812 384.8125 L 514.414062 386.40625 L 514.148438 389.328125 L 512.554688 395.433594 L 509.898438 402.074219 L 507.507812 406.589844 L 505.382812 409.773438 L 502.992188 412.960938 L 500.601562 415.882812 L 495.824219 420.664062 L 492.902344 423.054688 L 488.386719 426.238281 L 482.808594 429.425781 L 478.03125 431.550781 L 471.65625 433.675781 L 465.8125 435.003906 L 460.769531 435.800781 L 457.316406 436.066406 L 450.675781 436.066406 L 446.164062 435.535156 L 440.320312 434.472656 L 434.476562 432.878906 L 428.902344 430.753906 L 422.792969 427.832031 L 418.542969 425.175781 L 417.214844 424.644531 L 408.1875 427.832031 L 405.265625 428.894531 L 401.28125 428.894531 L 389.863281 424.910156 L 388.535156 424.644531 L 383.488281 427.832031 L 379.242188 429.957031 L 374.992188 431.816406 L 369.414062 433.675781 L 362.511719 435.269531 L 355.605469 436.066406 L 348.167969 436.066406 L 340.46875 435.003906 L 333.03125 433.144531 L 327.191406 431.019531 L 320.550781 427.832031 L 316.035156 424.910156 L 312.847656 422.523438 L 309.132812 419.335938 L 305.945312 416.148438 L 303.554688 413.226562 L 300.632812 409.242188 L 298.242188 405.261719 L 296.117188 401.011719 L 294.527344 397.027344 L 292.933594 392.246094 L 292.136719 388.53125 L 292.136719 386.140625 L 293.199219 384.015625 L 295.851562 381.625 L 300.632812 378.4375 L 307.804688 374.71875 L 313.378906 372.597656 L 318.160156 371.269531 L 323.472656 370.207031 L 327.988281 369.675781 L 338.34375 369.675781 L 345.515625 370.738281 L 351.089844 372.066406 L 357.730469 374.453125 L 361.980469 376.578125 L 366.492188 378.96875 L 371.007812 382.15625 L 375.257812 385.609375 L 379.769531 390.125 L 382.691406 393.839844 L 385.082031 397.292969 L 388.003906 402.339844 L 390.660156 408.445312 L 392.519531 414.289062 L 396.765625 415.882812 L 397.828125 416.148438 L 397.828125 392.246094 L 396.765625 391.714844 L 393.050781 389.0625 L 390.128906 386.671875 L 386.941406 383.75 L 383.488281 380.03125 L 380.832031 376.578125 L 378.179688 372.597656 L 374.726562 365.957031 L 372.867188 360.910156 L 371.273438 354.804688 L 370.476562 350.023438 L 370.210938 347.101562 L 370.210938 340.460938 L 371.273438 333.027344 L 372.867188 327.183594 L 374.726562 322.140625 L 377.117188 317.09375 L 380.300781 312.046875 L 382.957031 308.59375 L 385.878906 305.410156 L 386.941406 304.082031 L 389.066406 302.222656 L 391.722656 299.832031 L 396.5 296.378906 L 400.484375 293.988281 Z M 402.34375 293.191406 " fill-opacity="1" fill-rule="nonzero"/><path fill="#f3f0f2" d="M 403.140625 304.878906 L 404.203125 305.144531 L 408.453125 308.328125 L 413.761719 313.109375 L 416.152344 316.03125 L 419.074219 320.28125 L 421.464844 324.527344 L 423.058594 328.511719 L 424.652344 333.558594 L 425.449219 337.542969 L 425.714844 340.726562 L 425.714844 348.164062 L 425.183594 351.617188 L 423.855469 357.191406 L 421.996094 361.972656 L 419.871094 366.488281 L 416.683594 371.269531 L 413.496094 374.984375 L 410.046875 378.4375 L 406.328125 381.359375 L 403.671875 383.21875 L 402.34375 382.6875 L 397.5625 378.96875 L 393.582031 375.25 L 390.394531 371.535156 L 387.738281 367.550781 L 385.878906 364.363281 L 384.019531 360.113281 L 382.425781 355.335938 L 381.363281 350.289062 L 380.832031 343.648438 L 381.363281 337.808594 L 382.425781 332.496094 L 384.285156 327.183594 L 386.675781 322.140625 L 389.332031 317.890625 L 392.785156 313.640625 L 394.378906 311.78125 L 396.5 309.921875 L 399.15625 307.53125 Z M 403.140625 304.878906 " fill-opacity="1" fill-rule="nonzero"/><path fill="#f3f0f2" d="M 470.859375 380.296875 L 476.171875 380.296875 L 482.808594 381.09375 L 488.386719 382.421875 L 494.230469 384.546875 L 499.273438 386.9375 L 502.726562 389.0625 L 502.992188 390.125 L 501.132812 395.167969 L 499.007812 399.683594 L 496.089844 404.464844 L 493.167969 407.914062 L 491.308594 410.039062 L 487.324219 413.757812 L 483.339844 416.679688 L 478.828125 419.335938 L 474.3125 421.460938 L 469.796875 423.054688 L 465.8125 424.117188 L 461.300781 424.910156 L 455.988281 425.441406 L 452.269531 425.441406 L 445.101562 424.644531 L 438.460938 423.054688 L 433.679688 421.195312 L 429.167969 419.070312 L 425.183594 416.679688 L 424.652344 415.617188 L 426.246094 410.835938 L 428.371094 406.324219 L 431.554688 401.277344 L 433.679688 398.621094 L 436.601562 395.433594 L 439.789062 392.246094 L 444.570312 388.796875 L 448.550781 386.40625 L 452.535156 384.546875 L 457.582031 382.6875 L 462.628906 381.359375 L 467.671875 380.5625 Z M 470.859375 380.296875 " fill-opacity="1" fill-rule="nonzero"/><path fill="#f3f0f2" d="M 330.109375 380.296875 L 335.421875 380.296875 L 341 380.828125 L 348.167969 382.421875 L 354.011719 384.546875 L 358.261719 386.671875 L 362.246094 389.0625 L 365.695312 391.714844 L 369.414062 394.902344 L 372.867188 398.621094 L 374.992188 401.542969 L 376.851562 404.464844 L 380.035156 410.570312 L 381.894531 416.148438 L 380.566406 417.210938 L 374.460938 420.398438 L 370.742188 421.992188 L 366.757812 423.320312 L 360.917969 424.644531 L 357.199219 425.175781 L 353.746094 425.441406 L 350.558594 425.441406 L 344.453125 424.910156 L 338.078125 423.585938 L 331.4375 421.195312 L 327.191406 419.070312 L 323.207031 416.679688 L 320.285156 414.554688 L 316.300781 411.367188 L 314.441406 409.242188 L 311.789062 406.324219 L 309.132812 402.605469 L 306.476562 397.824219 L 304.617188 393.574219 L 303.554688 390.390625 L 303.554688 389.0625 L 308.335938 386.40625 L 312.054688 384.546875 L 317.097656 382.6875 L 323.738281 381.09375 Z M 330.109375 380.296875 " fill-opacity="1" fill-rule="nonzero"/><path fill="#2c5b40" d="M 351.089844 457.578125 L 353.480469 457.578125 L 357.199219 458.109375 L 360.652344 459.433594 L 363.304688 461.027344 L 365.164062 462.621094 L 367.554688 466.074219 L 368.882812 469.527344 L 369.414062 473.511719 L 369.148438 478.023438 L 368.085938 481.476562 L 366.226562 484.664062 L 364.367188 486.789062 L 361.714844 488.648438 L 358.792969 489.976562 L 355.871094 490.773438 L 354.011719 491.039062 L 350.558594 491.039062 L 346.574219 490.242188 L 342.328125 488.117188 L 340.203125 486.257812 L 338.34375 484.132812 L 336.484375 480.414062 L 335.6875 476.960938 L 335.6875 471.917969 L 336.75 467.667969 L 338.609375 464.214844 L 341.265625 461.292969 L 344.71875 459.167969 L 347.636719 458.109375 Z M 351.089844 457.578125 " fill-opacity="1" fill-rule="nonzero"/><path fill="#2c5b40" d="M 386.675781 457.578125 L 391.988281 457.578125 L 395.441406 458.636719 L 397.828125 460.230469 L 399.953125 462.089844 L 400.21875 462.621094 L 400.484375 458.109375 L 400.75 457.84375 L 405.53125 457.84375 L 405.796875 458.109375 L 405.796875 488.382812 L 404.46875 488.648438 L 402.078125 488.648438 L 400.484375 488.117188 L 400.484375 483.601562 L 397.828125 486.257812 L 394.113281 488.382812 L 391.988281 488.914062 L 386.410156 488.914062 L 383.222656 487.851562 L 380.566406 486.257812 L 378.179688 484.132812 L 376.054688 480.679688 L 374.992188 476.960938 L 374.726562 475.105469 L 374.726562 470.855469 L 375.523438 467.136719 L 377.382812 463.417969 L 379.769531 460.761719 L 382.957031 458.636719 Z M 386.675781 457.578125 " fill-opacity="1" fill-rule="nonzero"/><path fill="#2c5b40" d="M 510.960938 457.578125 L 516.003906 457.578125 L 519.457031 458.636719 L 521.847656 460.230469 L 523.972656 462.089844 L 524.238281 462.621094 L 524.503906 458.109375 L 524.769531 457.84375 L 529.550781 457.84375 L 529.816406 458.109375 L 529.816406 488.382812 L 528.222656 488.648438 L 524.769531 488.382812 L 524.503906 487.851562 L 524.503906 485.460938 L 524.769531 483.601562 L 522.644531 485.460938 L 519.722656 487.585938 L 517.066406 488.648438 L 516.003906 488.914062 L 510.429688 488.914062 L 507.242188 487.851562 L 504.585938 486.257812 L 502.460938 484.398438 L 500.601562 481.476562 L 499.273438 478.289062 L 498.742188 475.632812 L 498.742188 470.324219 L 499.539062 467.136719 L 501.398438 463.417969 L 504.054688 460.496094 L 506.976562 458.636719 Z M 510.960938 457.578125 " fill-opacity="1" fill-rule="nonzero"/><path fill="#2c5b40" d="M 297.710938 458.109375 L 308.601562 458.109375 L 309.664062 460.496094 L 314.441406 473.511719 L 315.769531 477.492188 L 316.300781 477.757812 L 316.832031 475.367188 L 321.878906 461.824219 L 323.207031 458.375 L 323.738281 458.109375 L 334.09375 458.109375 L 333.828125 459.433594 L 329.84375 468.730469 L 325.863281 478.289062 L 320.019531 491.835938 L 316.832031 499.269531 L 314.175781 505.378906 L 313.910156 505.644531 L 303.289062 505.644531 L 303.554688 504.316406 L 306.476562 498.207031 L 308.867188 492.894531 L 310.195312 489.976562 L 309.929688 488.117188 L 307.007812 481.210938 L 297.976562 459.964844 Z M 297.710938 458.109375 " fill-opacity="1" fill-rule="nonzero"/><path fill="#f3f0f2" d="M 388.003906 462.089844 L 392.253906 462.089844 L 394.644531 462.886719 L 397.03125 464.480469 L 398.890625 466.605469 L 400.21875 469.527344 L 400.484375 470.855469 L 400.484375 475.632812 L 399.421875 478.820312 L 397.828125 481.210938 L 395.972656 482.804688 L 393.316406 484.132812 L 391.988281 484.398438 L 388.269531 484.398438 L 385.347656 483.335938 L 382.691406 480.945312 L 381.097656 478.554688 L 380.035156 475.105469 L 380.035156 471.386719 L 380.832031 468.199219 L 382.425781 465.542969 L 384.285156 463.683594 L 386.941406 462.355469 Z M 388.003906 462.089844 " fill-opacity="1" fill-rule="nonzero"/><path fill="#f3f0f2" d="M 512.023438 462.089844 L 516.269531 462.089844 L 518.660156 462.886719 L 521.050781 464.480469 L 522.644531 466.339844 L 524.238281 469.527344 L 524.503906 470.589844 L 524.503906 475.632812 L 523.175781 479.351562 L 521.050781 482.007812 L 518.660156 483.601562 L 516.269531 484.398438 L 512.554688 484.398438 L 509.367188 483.335938 L 506.710938 480.945312 L 505.117188 478.554688 L 504.320312 476.429688 L 504.054688 474.839844 L 504.054688 471.652344 L 504.585938 468.996094 L 506.179688 465.808594 L 508.304688 463.683594 L 510.960938 462.355469 Z M 512.023438 462.089844 " fill-opacity="1" fill-rule="nonzero"/><path fill="#2c5b40" d="M 477.234375 457.578125 L 483.074219 457.578125 L 485.996094 458.371094 L 488.652344 459.699219 L 491.308594 462.089844 L 493.167969 465.011719 L 493.964844 467.667969 L 493.699219 467.933594 L 488.652344 467.933594 L 486.792969 465.011719 L 484.667969 463.152344 L 482.808594 462.355469 L 481.480469 462.089844 L 478.828125 462.089844 L 475.640625 462.886719 L 473.515625 464.480469 L 472.984375 464.480469 L 471.125 468.199219 L 470.59375 470.855469 L 470.59375 475.632812 L 471.390625 478.820312 L 472.71875 480.945312 L 473.78125 482.273438 L 476.4375 483.867188 L 478.828125 484.398438 L 481.214844 484.398438 L 484.136719 483.601562 L 485.730469 482.539062 L 486.527344 482.273438 L 487.058594 481.210938 L 488.652344 478.554688 L 493.964844 478.554688 L 493.699219 480.148438 L 491.839844 483.601562 L 490.246094 485.460938 L 487.589844 487.320312 L 484.136719 488.648438 L 482.808594 488.914062 L 476.96875 488.914062 L 473.515625 487.851562 L 471.125 486.523438 L 468.46875 484.132812 L 466.875 481.742188 L 465.546875 478.554688 L 465.015625 475.898438 L 465.015625 470.058594 L 466.34375 465.808594 L 467.671875 463.417969 L 470.0625 460.761719 L 472.71875 458.902344 L 475.90625 457.84375 Z M 477.234375 457.578125 " fill-opacity="1" fill-rule="nonzero"/><path fill="#2c5b40" d="M 424.652344 445.890625 L 426.511719 445.890625 L 426.511719 450.140625 L 426.246094 450.40625 L 423.324219 450.9375 L 421.464844 452.265625 L 420.933594 454.125 L 420.667969 457.84375 L 426.777344 457.84375 L 427.042969 458.375 L 427.042969 461.558594 L 426.777344 462.355469 L 420.667969 462.355469 L 420.667969 488.117188 L 420.402344 488.382812 L 416.152344 488.648438 L 415.355469 488.382812 L 415.355469 462.355469 L 411.640625 462.355469 L 411.375 462.089844 L 411.375 458.109375 L 411.640625 457.84375 L 415.355469 457.84375 L 415.355469 453.59375 L 416.152344 450.9375 L 417.746094 448.546875 L 420.136719 446.953125 L 422.792969 446.15625 Z M 424.652344 445.890625 " fill-opacity="1" fill-rule="nonzero"/><path fill="#2c5b40" d="M 444.835938 457.578125 L 447.488281 457.578125 L 447.753906 458.902344 L 447.753906 462.355469 L 447.488281 462.621094 L 442.710938 463.417969 L 440.054688 465.011719 L 438.460938 467.667969 L 438.195312 468.730469 L 437.929688 481.210938 L 437.664062 488.117188 L 437.398438 488.382812 L 433.679688 488.648438 L 432.617188 488.382812 L 432.617188 458.109375 L 432.882812 457.84375 L 437.398438 457.84375 L 437.664062 458.109375 L 437.664062 462.089844 L 438.992188 461.027344 L 440.320312 459.699219 L 442.976562 458.109375 Z M 444.835938 457.578125 " fill-opacity="1" fill-rule="nonzero"/><path fill="#f3f0f2" d="M 351.886719 466.339844 L 354.542969 466.605469 L 356.667969 467.933594 L 358.261719 469.792969 L 359.058594 472.183594 L 359.058594 476.429688 L 357.996094 479.351562 L 356.136719 481.210938 L 353.480469 482.273438 L 351.355469 482.273438 L 348.699219 481.210938 L 346.839844 479.085938 L 346.042969 476.960938 L 346.042969 471.652344 L 346.839844 469.527344 L 348.699219 467.402344 L 350.292969 466.605469 Z M 351.886719 466.339844 " fill-opacity="1" fill-rule="nonzero"/><path fill="#2c5b40" d="M 453.332031 457.84375 L 457.847656 457.84375 L 458.378906 458.109375 L 458.378906 488.382812 L 457.847656 488.648438 L 454.128906 488.648438 L 453.066406 488.117188 L 453.066406 458.109375 Z M 453.332031 457.84375 " fill-opacity="1" fill-rule="nonzero"/><path fill="#2c5b40" d="M 455.191406 446.15625 L 457.316406 446.421875 L 458.644531 447.484375 L 459.175781 448.28125 L 459.175781 450.9375 L 457.582031 452.796875 L 456.253906 453.328125 L 454.660156 453.0625 L 453.066406 452 L 452.269531 450.140625 L 452.535156 448.546875 L 453.597656 446.953125 Z M 455.191406 446.15625 " fill-opacity="1" fill-rule="nonzero"/></svg>